# Made in Blockbench 4.9.3
mtllib building_with_ads.mtl

o ad poster
v 2.0771261697354837 7.312500000000001 0.2209708691207961
v -0.220970869120795 7.312500000000001 -2.0771261697354833
v 1.944543648263006 7.3125 0.2651650429449557
v -0.30935921676911327 7.3125 -1.988737822087164
v 2.0771261697354833 8.9375 0.2209708691207961
v -0.22097086912079544 8.9375 -2.0771261697354833
v 1.9445436482630056 8.9375 0.2651650429449557
v -0.30935921676911415 8.9375 -1.988737822087164
v 1.9953026535751408 7.3125000000000115 2.2914144890318853
v 1.9953026535751406 8.93749999999999 2.2914144890318853
v 1.893784642950871 7.3125000000000115 2.304779588680674
v 1.8937846429508705 8.93749999999999 2.3047795886806743
vt 0.49951044921875 0.7109375
vt 0.39794794921875 0.7109375
vt 0.39990107421875 0.70703125
vt 0.49951044921875 0.70703125
vt 0.20361455078125001 0.638671875
vt 0.20556767578125001 0.642578125
vt 0.10400517578125 0.642578125
vt 0.10400517578125 0.638671875
vt 0.251953125 0.541015625
vt 0.302734375 0.541015625
vt 0.302734375 0.642578125
vt 0.251953125 0.642578125
vt 0.154296875 0.53515625
vt 0.154296875 0.634765625
vt 0.103515625 0.634765625
vt 0.103515625 0.53515625
vt 0.20703125 0.62109375
vt 0.20703125 0.625
vt 0.15625 0.625
vt 0.15625 0.62109375
vt 0.20703125 0.630859375
vt 0.15625 0.630859375
vt 0.15625 0.626953125
vt 0.20703125 0.626953125
vt 0.35400517578125 0.6633787109375
vt 0.35595322265625 0.6608400390625
vt 0.39990107421875 0.70703125
vt 0.39794794921875 0.7109375
vt 0.3671875 0.810546875
vt 0.41796875 0.810546875
vt 0.41796875 0.875
vt 0.3671875 0.875
vt 0.24756240234375 0.5924806640625
vt 0.24951044921874999 0.5950193359375
vt 0.20556767578125001 0.642578125
vt 0.20361455078125001 0.638671875
vt 0.3671875 0.876953125
vt 0.41796875 0.876953125
vt 0.41796875 0.94140625
vt 0.3671875 0.94140625
vn 2.3551386880256634e-16 -1 -2.355138688025663e-16
vn -2.3551386880256634e-16 1 2.355138688025663e-16
vn 0.7071067811865476 2.355138688025663e-16 -0.7071067811865475
vn -0.7071067811865476 -2.355138688025663e-16 0.7071067811865475
vn 0.1305261922200518 -8.108985449048001e-17 0.9914448613738105
vn -0.7071067811865476 -7.850462293418876e-17 -0.7071067811865476
vn 9.760627085859398e-16 -1 5.389513026655828e-15
vn 0.9992200062700431 2.1748725470707313e-16 0.0394889740268734
vn 4.954209141609907e-16 1 5.78751475263186e-15
vn -0.999690473145679 -2.1921376733090402e-16 -0.0248788645594743
usemtl m_7e3b1f64-8f77-d8b0-d5e2-da5946688cde
f 2/1/1 1/2/1 3/3/1 4/4/1
f 7/5/2 5/6/2 6/7/2 8/8/2
f 5/9/3 1/10/3 2/11/3 6/12/3
f 4/13/4 3/14/4 7/15/4 8/16/4
f 11/17/5 9/18/5 10/19/5 12/20/5
f 6/21/6 2/22/6 4/23/6 8/24/6
f 9/25/7 11/26/7 3/27/7 1/28/7
f 10/29/8 9/30/8 1/31/8 5/32/8
f 12/33/9 10/34/9 5/35/9 7/36/9
f 11/37/10 12/38/10 7/39/10 3/40/10
o cuboid
v -0.10723304703363068 3 -2.4241747852752233
v -0.10723304703363068 3 -3.2991747852752233
v -0.5447330470336309 3 -2.4241747852752233
v -0.5447330470336309 3 -3.2991747852752233
v -0.10723304703363157 6.875 -2.4241747852752233
v -0.10723304703363157 6.875 -3.2991747852752233
v -0.5447330470336313 6.875 -2.4241747852752233
v -0.5447330470336313 6.875 -3.2991747852752233
vt 0.220703125 0.7890625
vt 0.193359375 0.7890625
vt 0.193359375 0.775390625
vt 0.220703125 0.775390625
vt 0.236328125 0.759765625
vt 0.236328125 0.7734375
vt 0.208984375 0.7734375
vt 0.208984375 0.759765625
vt 0.3671875 0.97265625
vt 0.48828125 0.97265625
vt 0.48828125 1
vt 0.3671875 1
vt 0.48828125 0.943359375
vt 0.48828125 0.970703125
vt 0.3671875 0.970703125
vt 0.3671875 0.943359375
vt 0.48828125 0.794921875
vt 0.48828125 0.80859375
vt 0.3671875 0.80859375
vt 0.3671875 0.794921875
vt 0.494140625 0.673828125
vt 0.373046875 0.673828125
vt 0.373046875 0.66015625
vt 0.494140625 0.66015625
vn 2.220446049250313e-16 -1 0
vn -2.220446049250313e-16 1 0
vn 1 2.220446049250313e-16 0
vn -1 -2.220446049250313e-16 0
vn 0 0 1
vn 0 0 -1
usemtl m_7e3b1f64-8f77-d8b0-d5e2-da5946688cde
f 14/41/11 13/42/11 15/43/11 16/44/11
f 19/45/12 17/46/12 18/47/12 20/48/12
f 17/49/13 13/50/13 14/51/13 18/52/13
f 16/53/14 15/54/14 19/55/14 20/56/14
f 15/57/15 13/58/15 17/59/15 19/60/15
f 18/61/16 14/62/16 16/63/16 20/64/16
o cuboid
v -0.29473304703363157 6.4375 -2.7366747852752242
v -0.29473304703363157 6.3125 -2.7366747852752242
v -0.29473304703363157 6.4375 -2.2366747852752242
v -0.29473304703363157 6.3125 -2.2366747852752242
v -0.41973304703363157 6.4375 -2.7366747852752242
v -0.41973304703363157 6.3125 -2.7366747852752242
v -0.41973304703363157 6.4375 -2.2366747852752242
v -0.41973304703363157 6.3125 -2.2366747852752242
vt 0.3203125 0.642578125
vt 0.31640625 0.642578125
vt 0.31640625 0.626953125
vt 0.3203125 0.626953125
vt 0.326171875 0.626953125
vt 0.326171875 0.642578125
vt 0.322265625 0.642578125
vt 0.322265625 0.626953125
vt 0.220703125 0.748046875
vt 0.224609375 0.748046875
vt 0.224609375 0.751953125
vt 0.220703125 0.751953125
vt 0.236328125 0.736328125
vt 0.236328125 0.740234375
vt 0.232421875 0.740234375
vt 0.232421875 0.736328125
vt 0.33984375 0.619140625
vt 0.33984375 0.634765625
vt 0.3359375 0.634765625
vt 0.3359375 0.619140625
vt 0.33203125 0.62890625
vt 0.328125 0.62890625
vt 0.328125 0.61328125
vt 0.33203125 0.61328125
vn 1 0 0
vn -1 0 0
vn 0 2.220446049250313e-16 -1
vn 0 -2.220446049250313e-16 1
vn 0 1 2.220446049250313e-16
vn 0 -1 -2.220446049250313e-16
usemtl m_7e3b1f64-8f77-d8b0-d5e2-da5946688cde
f 22/65/17 21/66/17 23/67/17 24/68/17
f 27/69/18 25/70/18 26/71/18 28/72/18
f 25/73/19 21/74/19 22/75/19 26/76/19
f 24/77/20 23/78/20 27/79/20 28/80/20
f 23/81/21 21/82/21 25/83/21 27/84/21
f 26/85/22 22/86/22 24/87/22 28/88/22
o cuboid
v -0.2947330470336318 3.5 -2.7366747852752242
v -0.2947330470336318 3.375 -2.7366747852752242
v -0.2947330470336318 3.5 -2.2366747852752242
v -0.2947330470336318 3.375 -2.2366747852752242
v -0.4197330470336318 3.5 -2.7366747852752242
v -0.4197330470336318 3.375 -2.7366747852752242
v -0.4197330470336318 3.5 -2.2366747852752242
v -0.4197330470336318 3.375 -2.2366747852752242
vt 0.244140625 0.625
vt 0.240234375 0.625
vt 0.240234375 0.609375
vt 0.244140625 0.609375
vt 0.25 0.609375
vt 0.25 0.625
vt 0.24609375 0.625
vt 0.24609375 0.609375
vt 0.23828125 0.732421875
vt 0.2421875 0.732421875
vt 0.2421875 0.736328125
vt 0.23828125 0.736328125
vt 0.248046875 0.732421875
vt 0.248046875 0.736328125
vt 0.244140625 0.736328125
vt 0.244140625 0.732421875
vt 0.30859375 0.609375
vt 0.30859375 0.625
vt 0.3046875 0.625
vt 0.3046875 0.609375
vt 0.314453125 0.625
vt 0.310546875 0.625
vt 0.310546875 0.609375
vt 0.314453125 0.609375
vn 1 0 0
vn -1 0 0
vn 0 2.220446049250313e-16 -1
vn 0 -2.220446049250313e-16 1
vn 0 1 2.220446049250313e-16
vn 0 -1 -2.220446049250313e-16
usemtl m_7e3b1f64-8f77-d8b0-d5e2-da5946688cde
f 30/89/23 29/90/23 31/91/23 32/92/23
f 35/93/24 33/94/24 34/95/24 36/96/24
f 33/97/25 29/98/25 30/99/25 34/100/25
f 32/101/26 31/102/26 35/103/26 36/104/26
f 31/105/27 29/106/27 33/107/27 35/108/27
f 34/109/28 30/110/28 32/111/28 36/112/28
o body
v 2.3125 7.125 2.3125
v 2.3125 0.4375 2.3125
v -2.3125 7.125 2.3125
v -2.3125 7.125 -2.3125
v -2.3125 0.4375 2.3125
v -2.3125 0.4375 -2.3125
v 0 7.125 2.3125
v 0 7.125 -2.3125
v 0 0.4375 -2.3125
v 0 0.4375 2.3125
v 0 7.125 0
v 2.3125 7.125 0
v 2.3125 0.4375 0
v 0 0.4375 0
v -2.3125 0.4375 0
v -2.3125 7.125 0
vt 0.29296875 0.791015625
vt 0.365234375 0.791015625
vt 0.365234375 1
vt 0.29296875 1
vt 0.14453125 1
vt 0.072265625 1
vt 0.072265625 0.791015625
vt 0.14453125 0.791015625
vt 0.248046875 0.64453125
vt 0.248046875 0.716796875
vt 0.17578125 0.716796875
vt 0.17578125 0.64453125
vt 0.322265625 0.7890625
vt 0.322265625 0.716796875
vt 0.39453125 0.716796875
vt 0.39453125 0.7890625
vt 0.291015625 1
vt 0.21875 1
vt 0.21875 0.791015625
vt 0.291015625 0.791015625
vt 0.17578125 0.64453125
vt 0.17578125 0.716796875
vt 0.103515625 0.716796875
vt 0.103515625 0.64453125
vt 0.4140625 0.658203125
vt 0.341796875 0.658203125
vt 0.341796875 0.44921875
vt 0.4140625 0.44921875
vt 0.25 0.7890625
vt 0.25 0.716796875
vt 0.322265625 0.716796875
vt 0.322265625 0.7890625
vt 0.146484375 0.791015625
vt 0.21875 0.791015625
vt 0.21875 1
vt 0.146484375 1
vt 0.322265625 0.64453125
vt 0.322265625 0.716796875
vt 0.25 0.716796875
vt 0.25 0.64453125
vt 0 0.791015625
vt 0.072265625 0.791015625
vt 0.072265625 1
vt 0 1
vt 0.103515625 0.7890625
vt 0.103515625 0.716796875
vt 0.17578125 0.716796875
vt 0.17578125 0.7890625
vt 0.248046875 0.716796875
vt 0.17578125 0.7890625
vt 0.17578125 0.716796875
vt 0.322265625 0.716796875
vt 0.322265625 0.64453125
vt 0.39453125 0.716796875
vt 0.1015625 0.580078125
vt 0.1015625 0.7890625
vt 0 0.7890625
vt 0 0.580078125
vn 1 0 0
vn -1 0 0
vn 0 1 0
vn 0 -1 0
vn 0 0 1
vn 0 1 0
vn 0 0 -1
vn 0 -1 0
vn 0 0 1
vn 0 -1 0
vn -1 0 0
vn 0 1 0
vn 0 1 0
vn 0 -1 0
vn 0.7071067811865476 0 -0.7071067811865476
usemtl m_7e3b1f64-8f77-d8b0-d5e2-da5946688cde
f 38/113/29 49/114/29 48/115/29 37/116/29
f 39/117/30 52/118/30 51/119/30 41/120/30
f 37/121/31 48/122/31 47/123/31 43/124/31
f 46/125/32 50/126/32 49/127/32 38/128/32
f 37/129/33 43/130/33 46/131/33 38/132/33
f 43/133/34 47/134/34 52/135/34 39/136/34
f 40/137/35 44/138/35 45/139/35 42/140/35
f 41/141/36 51/142/36 50/143/36 46/144/36
f 41/145/37 46/146/37 43/147/37 39/148/37
f 45/149/38 50/150/38 51/151/38 42/152/38
f 42/153/39 51/154/39 52/155/39 40/156/39
f 40/157/40 52/158/40 47/159/40 44/160/40
f 48/161/41 44/162/41 47/163/41
f 50/164/42 45/165/42 49/166/42
f 45/167/43 44/168/43 48/169/43 49/170/43
o cuboid
v 0.2651650429449553 7.625 -1.4526650429449552
v 0.17677669529663687 7.625 -1.5410533905932737
v 0.2651650429449553 7.125 -1.4526650429449552
v 0.17677669529663687 7.125 -1.5410533905932737
v 0.17677669529663687 7.625 -1.364276695296637
v 0.08838834764831842 7.625 -1.4526650429449552
v 0.17677669529663687 7.125 -1.364276695296637
v 0.08838834764831842 7.125 -1.4526650429449552
vt 0.2421875 0.7890625
vt 0.23828125 0.7890625
vt 0.23828125 0.7734375
vt 0.2421875 0.7734375
vt 0.2421875 0.755859375
vt 0.2421875 0.771484375
vt 0.23828125 0.771484375
vt 0.23828125 0.755859375
vt 0.18359375 0.78515625
vt 0.1875 0.78515625
vt 0.1875 0.7890625
vt 0.18359375 0.7890625
vt 0.2265625 0.78515625
vt 0.2265625 0.7890625
vt 0.22265625 0.7890625
vt 0.22265625 0.78515625
vt 0.23046875 0.7421875
vt 0.23046875 0.7578125
vt 0.2265625 0.7578125
vt 0.2265625 0.7421875
vt 0.236328125 0.7578125
vt 0.232421875 0.7578125
vt 0.232421875 0.7421875
vt 0.236328125 0.7421875
vn 0.7071067811865475 0 -0.7071067811865476
vn -0.7071067811865475 0 0.7071067811865476
vn 0 1 0
vn 0 -1 0
vn 0.7071067811865476 0 0.7071067811865475
vn -0.7071067811865476 0 -0.7071067811865475
usemtl m_7e3b1f64-8f77-d8b0-d5e2-da5946688cde
f 54/171/44 53/172/44 55/173/44 56/174/44
f 59/175/45 57/176/45 58/177/45 60/178/45
f 57/179/46 53/180/46 54/181/46 58/182/46
f 56/183/47 55/184/47 59/185/47 60/186/47
f 55/187/48 53/188/48 57/189/48 59/190/48
f 58/191/49 54/192/49 56/193/49 60/194/49
o cuboid
v 1.5467960838455728 7.625 -0.17103400204433816
v 1.4584077361972543 7.625 -0.25942234969265654
v 1.5467960838455728 7.125 -0.17103400204433816
v 1.4584077361972543 7.125 -0.25942234969265654
v 1.4584077361972545 7.625 -0.08264565439601967
v 1.3700193885489358 7.625 -0.17103400204433816
v 1.4584077361972545 7.125 -0.08264565439601967
v 1.3700193885489358 7.125 -0.17103400204433816
vt 0.248046875 0.7890625
vt 0.244140625 0.7890625
vt 0.244140625 0.7734375
vt 0.248046875 0.7734375
vt 0.248046875 0.755859375
vt 0.248046875 0.771484375
vt 0.244140625 0.771484375
vt 0.244140625 0.755859375
vt 0.22265625 0.779296875
vt 0.2265625 0.779296875
vt 0.2265625 0.783203125
vt 0.22265625 0.783203125
vt 0.203125 0.76953125
vt 0.203125 0.7734375
vt 0.19921875 0.7734375
vt 0.19921875 0.76953125
vt 0.2421875 0.73828125
vt 0.2421875 0.75390625
vt 0.23828125 0.75390625
vt 0.23828125 0.73828125
vt 0.248046875 0.75390625
vt 0.244140625 0.75390625
vt 0.244140625 0.73828125
vt 0.248046875 0.73828125
vn 0.7071067811865475 0 -0.7071067811865476
vn -0.7071067811865475 0 0.7071067811865476
vn 0 1 0
vn 0 -1 0
vn 0.7071067811865476 0 0.7071067811865475
vn -0.7071067811865476 0 -0.7071067811865475
usemtl m_7e3b1f64-8f77-d8b0-d5e2-da5946688cde
f 62/195/50 61/196/50 63/197/50 64/198/50
f 67/199/51 65/200/51 66/201/51 68/202/51
f 65/203/52 61/204/52 62/205/52 66/206/52
f 64/207/53 63/208/53 67/209/53 68/210/53
f 63/211/54 61/212/54 65/213/54 67/214/54
f 66/215/55 62/216/55 64/217/55 68/218/55
o cuboid
v 1.9552669529663684 7.625 1.8883252147247762
v 1.9552669529663684 7.625 1.7633252147247762
v 1.9552669529663684 7.125 1.8883252147247762
v 1.9552669529663684 7.125 1.7633252147247762
v 1.8302669529663684 7.625 1.8883252147247762
v 1.8302669529663684 7.625 1.7633252147247762
v 1.8302669529663684 7.125 1.8883252147247762
v 1.8302669529663684 7.125 1.7633252147247762
vt 0.33984375 0.65234375
vt 0.3359375 0.65234375
vt 0.3359375 0.63671875
vt 0.33984375 0.63671875
vt 0.333984375 0.630859375
vt 0.333984375 0.646484375
vt 0.330078125 0.646484375
vt 0.330078125 0.630859375
vt 0.228515625 0.78515625
vt 0.232421875 0.78515625
vt 0.232421875 0.7890625
vt 0.228515625 0.7890625
vt 0.232421875 0.779296875
vt 0.232421875 0.783203125
vt 0.228515625 0.783203125
vt 0.228515625 0.779296875
vt 0.228515625 0.626953125
vt 0.228515625 0.642578125
vt 0.224609375 0.642578125
vt 0.224609375 0.626953125
vt 0.234375 0.642578125
vt 0.23046875 0.642578125
vt 0.23046875 0.626953125
vt 0.234375 0.626953125
vn 1 0 0
vn -1 0 0
vn 0 1 0
vn 0 -1 0
vn 0 0 1
vn 0 0 -1
usemtl m_7e3b1f64-8f77-d8b0-d5e2-da5946688cde
f 70/219/56 69/220/56 71/221/56 72/222/56
f 75/223/57 73/224/57 74/225/57 76/226/57
f 73/227/58 69/228/58 70/229/58 74/230/58
f 72/231/59 71/232/59 75/233/59 76/234/59
f 71/235/60 69/236/60 73/237/60 75/238/60
f 74/239/61 70/240/61 72/241/61 76/242/61
o cuboid
v 1.9552669529663684 7.625 0.6383252147247762
v 1.9552669529663684 7.625 0.5133252147247762
v 1.9552669529663684 7.125 0.6383252147247762
v 1.9552669529663684 7.125 0.5133252147247762
v 1.8302669529663684 7.625 0.6383252147247762
v 1.8302669529663684 7.625 0.5133252147247762
v 1.8302669529663684 7.125 0.6383252147247762
v 1.8302669529663684 7.125 0.5133252147247762
vt 0.240234375 0.642578125
vt 0.236328125 0.642578125
vt 0.236328125 0.626953125
vt 0.240234375 0.626953125
vt 0.24609375 0.626953125
vt 0.24609375 0.642578125
vt 0.2421875 0.642578125
vt 0.2421875 0.626953125
vt 0.21484375 0.75390625
vt 0.21875 0.75390625
vt 0.21875 0.7578125
vt 0.21484375 0.7578125
vt 0.224609375 0.75390625
vt 0.224609375 0.7578125
vt 0.220703125 0.7578125
vt 0.220703125 0.75390625
vt 0.30859375 0.626953125
vt 0.30859375 0.642578125
vt 0.3046875 0.642578125
vt 0.3046875 0.626953125
vt 0.314453125 0.642578125
vt 0.310546875 0.642578125
vt 0.310546875 0.626953125
vt 0.314453125 0.626953125
vn 1 0 0
vn -1 0 0
vn 0 1 0
vn 0 -1 0
vn 0 0 1
vn 0 0 -1
usemtl m_7e3b1f64-8f77-d8b0-d5e2-da5946688cde
f 78/243/62 77/244/62 79/245/62 80/246/62
f 83/247/63 81/248/63 82/249/63 84/250/63
f 81/251/64 77/252/64 78/253/64 82/254/64
f 80/255/65 79/256/65 83/257/65 84/258/65
f 79/259/66 77/260/66 81/261/66 83/262/66
f 82/263/67 78/264/67 80/265/67 84/266/67
