# Blender 4.0.2
# www.blender.org
mtllib pedestrian.mtl
o head
v 0.000000 3.795832 -0.441121
v 0.000000 3.354711 -0.623839
v 0.000000 2.913591 -0.441121
v 0.382022 3.795832 -0.220560
v 0.540260 3.354711 -0.311919
v 0.382022 2.913591 -0.220560
v 0.382022 3.795832 0.220560
v 0.540260 3.354711 0.311919
v 0.382022 2.913591 0.220560
v -0.000000 3.795832 0.441121
v -0.000000 3.354711 0.623839
v -0.000000 2.913591 0.441121
v 0.000000 2.730873 0.000000
v 0.000000 3.978550 0.000000
v -0.382022 3.795832 0.220560
v -0.540260 3.354711 0.311919
v -0.382022 2.913591 0.220560
v -0.382022 3.795832 -0.220560
v -0.540260 3.354711 -0.311919
v -0.382022 2.913591 -0.220560
vn 0.2157 -0.9021 -0.3737
vn 0.4706 0.3377 -0.8152
vn 0.4706 -0.3377 -0.8152
vn 0.2157 0.9021 -0.3737
vn 0.9413 -0.3377 -0.0000
vn 0.4315 0.9021 -0.0000
vn 0.4315 -0.9021 -0.0000
vn 0.9413 0.3377 -0.0000
vn 0.4706 0.3377 0.8152
vn 0.4706 -0.3377 0.8152
vn 0.2157 0.9021 0.3737
vn 0.2157 -0.9021 0.3737
vn -0.2157 -0.9021 0.3737
vn -0.4706 0.3377 0.8152
vn -0.4706 -0.3377 0.8152
vn -0.2157 0.9021 0.3737
vn -0.4315 -0.9021 -0.0000
vn -0.9413 0.3377 -0.0000
vn -0.9413 -0.3377 -0.0000
vn -0.4315 0.9021 -0.0000
vn -0.2157 -0.9021 -0.3737
vn -0.4706 0.3377 -0.8152
vn -0.4706 -0.3377 -0.8152
vn -0.2157 0.9021 -0.3737
vt 0.235811 0.599538
vt 0.269105 0.699422
vt 0.202516 0.699422
vt 0.269105 0.799305
vt 0.269105 0.899188
vt 0.202516 0.899188
vt 0.202516 0.799305
vt 0.235811 0.999071
vt 0.135927 0.799305
vt 0.135927 0.699422
vt 0.169222 0.999071
vt 0.135927 0.899188
vt 0.169222 0.599538
vt 0.069338 0.899188
vt 0.069338 0.799305
vt 0.069338 0.699422
vt 0.102633 0.999071
vt 0.102633 0.599538
vt 0.036044 0.599538
vt 0.002750 0.699422
vt 0.002750 0.899188
vt 0.002750 0.799305
vt 0.036044 0.999071
vt 0.368988 0.599538
vt 0.402283 0.699422
vt 0.335694 0.699422
vt 0.402283 0.799305
vt 0.402283 0.899188
vt 0.335694 0.899188
vt 0.335694 0.799305
vt 0.368988 0.999071
vt 0.302399 0.599538
vt 0.302399 0.999071
s 0
usemtl Material.001
f 13/1/1 3/2/1 6/3/1
f 2/4/2 1/5/2 4/6/2 5/7/2
f 3/2/3 2/4/3 5/7/3 6/3/3
f 1/5/4 14/8/4 4/6/4
f 6/3/5 5/7/5 8/9/5 9/10/5
f 4/6/6 14/11/6 7/12/6
f 13/13/7 6/3/7 9/10/7
f 5/7/8 4/6/8 7/12/8 8/9/8
f 8/9/9 7/12/9 10/14/9 11/15/9
f 9/10/10 8/9/10 11/15/10 12/16/10
f 7/12/11 14/17/11 10/14/11
f 13/18/12 9/10/12 12/16/12
f 13/19/13 12/16/13 17/20/13
f 11/15/14 10/14/14 15/21/14 16/22/14
f 12/16/15 11/15/15 16/22/15 17/20/15
f 10/14/16 14/23/16 15/21/16
f 13/24/17 17/25/17 20/26/17
f 16/27/18 15/28/18 18/29/18 19/30/18
f 17/25/19 16/27/19 19/30/19 20/26/19
f 15/28/20 14/31/20 18/29/20
f 13/32/21 20/26/21 3/2/21
f 19/30/22 18/29/22 1/5/22 2/4/22
f 20/26/23 19/30/23 2/4/23 3/2/23
f 18/29/24 14/33/24 1/5/24
o body
v 0.000000 1.114625 -0.874344
v 0.000000 2.770876 -0.384712
v 0.757205 1.114625 -0.437172
v 0.333170 2.770876 -0.192356
v 0.757205 1.114625 0.437172
v 0.333170 2.770876 0.192356
v -0.000000 1.114625 0.874345
v 0.000000 2.770876 0.384712
v -0.757205 1.114625 0.437172
v -0.333170 2.770876 0.192356
v -0.757205 1.114625 -0.437172
v -0.333170 2.770876 -0.192356
vn 0.4844 0.2480 -0.8390
vn 0.9688 0.2480 -0.0000
vn 0.4844 0.2480 0.8390
vn -0.4844 0.2480 0.8390
vn -0.0000 1.0000 -0.0000
vn -0.9688 0.2480 -0.0000
vn -0.4844 0.2480 -0.8390
vt 0.556082 0.541756
vt 0.808428 0.754619
vt 0.770951 0.813670
vt 0.470908 0.675964
vt 0.750614 0.880588
vt 0.424687 0.828049
vt 0.748894 0.950506
vt 0.420778 0.986955
vt 0.972110 0.333358
vt 0.991480 0.662923
vt 0.922851 0.676402
vt 0.816136 0.363991
vt 0.812025 0.847118
vt 0.871716 0.883567
vt 0.869996 0.953485
vt 0.808585 0.986955
vt 0.860319 0.707726
vt 0.674016 0.435183
s 0
usemtl Material.001
f 21/34/25 22/35/25 24/36/25 23/37/25
f 23/37/26 24/36/26 26/38/26 25/39/26
f 25/39/27 26/38/27 28/40/27 27/41/27
f 27/42/28 28/43/28 30/44/28 29/45/28
f 24/46/29 22/47/29 32/48/29 30/49/29 28/40/29 26/38/29
f 29/45/30 30/44/30 32/50/30 31/51/30
f 31/51/31 32/50/31 22/35/31 21/34/31
o leg_left
v 0.362678 0.254494 -0.100000
v 0.362678 1.174494 -0.100000
v 0.449280 0.254494 0.050000
v 0.449280 1.174494 0.050000
v 0.276075 0.254494 0.050000
v 0.276075 1.174494 0.050000
vn 0.8660 -0.0000 -0.5000
vn -0.0000 -0.0000 1.0000
vn -0.0000 1.0000 -0.0000
vn -0.8660 -0.0000 -0.5000
vn -0.0000 -1.0000 -0.0000
vt 0.312149 0.378771
vt 0.312149 0.556240
vt 0.193836 0.556240
vt 0.193836 0.378771
vt 0.330779 0.242018
vt 0.257007 0.369796
vt 0.183234 0.242018
s 0
usemtl Material.001
f 33/52/32 34/53/32 36/54/32 35/55/32
f 35/52/33 36/53/33 38/54/33 37/55/33
f 36/56/34 34/57/34 38/58/34
f 37/52/35 38/53/35 34/54/35 33/55/35
f 33/57/36 35/56/36 37/58/36
o leg_right
v -0.375846 0.254494 -0.100000
v -0.375846 1.174494 -0.100000
v -0.289244 0.254494 0.050000
v -0.289244 1.174494 0.050000
v -0.462449 0.254494 0.050000
v -0.462449 1.174494 0.050000
vn 0.8660 -0.0000 -0.5000
vn -0.0000 -0.0000 1.0000
vn -0.0000 1.0000 -0.0000
vn -0.8660 -0.0000 -0.5000
vn -0.0000 -1.0000 -0.0000
vt 0.312649 0.378105
vt 0.312649 0.549164
vt 0.198610 0.549164
vt 0.198610 0.378105
vt 0.312868 0.378105
vt 0.312868 0.549164
vt 0.198828 0.549164
vt 0.198828 0.378105
vt 0.328106 0.234138
vt 0.256998 0.357301
vt 0.185889 0.234138
vt 0.312597 0.378105
vt 0.312597 0.549164
vt 0.198558 0.549164
vt 0.198558 0.378105
vt 0.257159 0.357790
vt 0.328267 0.234627
vt 0.186051 0.234627
s 0
usemtl Material.001
f 39/59/37 40/60/37 42/61/37 41/62/37
f 41/63/38 42/64/38 44/65/38 43/66/38
f 42/67/39 40/68/39 44/69/39
f 43/70/40 44/71/40 40/72/40 39/73/40
f 39/74/41 41/75/41 43/76/41
o arm_left
v 1.307519 2.567265 -0.100000
v 0.387519 2.567265 -0.100000
v 1.307519 2.653868 0.050000
v 0.387519 2.653868 0.050000
v 1.307519 2.480663 0.050000
v 0.387519 2.480663 0.050000
vn -0.0000 0.8660 -0.5000
vn -0.0000 -0.0000 1.0000
vn -1.0000 -0.0000 -0.0000
vn -0.0000 -0.8660 -0.5000
vn 1.0000 -0.0000 -0.0000
vt 0.122392 0.382742
vt 0.122392 0.558719
vt 0.005074 0.558719
vt 0.005074 0.382742
vt 0.150201 0.251356
vt 0.077049 0.378060
vt 0.003896 0.251356
s 0
usemtl Material.001
f 45/77/42 46/78/42 48/79/42 47/80/42
f 47/77/43 48/78/43 50/79/43 49/80/43
f 48/81/44 46/82/44 50/83/44
f 49/77/45 50/78/45 46/79/45 45/80/45
f 45/82/46 47/81/46 49/83/46
o arm_right
v -1.299269 2.567265 -0.100000
v -0.379269 2.567265 -0.100000
v -1.299269 2.480663 0.050000
v -0.379269 2.480663 0.050000
v -1.299269 2.653868 0.050000
v -0.379269 2.653868 0.050000
vn -0.0000 -0.8660 -0.5000
vn -0.0000 -0.0000 1.0000
vn 1.0000 -0.0000 -0.0000
vn -0.0000 0.8660 -0.5000
vn -1.0000 -0.0000 -0.0000
vt 0.127929 0.377510
vt 0.127929 0.560702
vt 0.005801 0.560702
vt 0.005801 0.377510
vt 0.154424 0.241560
vt 0.078273 0.373459
vt 0.002121 0.241560
s 0
usemtl Material.001
f 51/84/47 52/85/47 54/86/47 53/87/47
f 53/84/48 54/85/48 56/86/48 55/87/48
f 54/88/49 52/89/49 56/90/49
f 55/84/50 56/85/50 52/86/50 51/87/50
f 51/89/51 53/88/51 55/90/51
