# Made in Blockbench 4.9.3
mtllib crosswalk_sign.mtl

o cuboid
v 0.03125 2.25 0.03125
v 0.03125 2.25 -0.03125
v 0.03125 0 0.03125
v 0.03125 0 -0.03125
v -0.03125 2.25 0.03125
v -0.03125 2.25 -0.03125
v -0.03125 0 0.03125
v -0.03125 0 -0.03125
vt 0.015625 0.84375
vt 0 0.84375
vt 0 0.28125
vt 0.015625 0.28125
vt 0.046875 0.234375
vt 0.046875 0.796875
vt 0.03125 0.796875
vt 0.03125 0.234375
vt 0.28125 0.890625
vt 0.296875 0.890625
vt 0.296875 0.90625
vt 0.28125 0.90625
vt 0.296875 0.859375
vt 0.296875 0.875
vt 0.28125 0.875
vt 0.28125 0.859375
vt 0.078125 0.171875
vt 0.078125 0.734375
vt 0.0625 0.734375
vt 0.0625 0.171875
vt 0.109375 0.6875
vt 0.09375 0.6875
vt 0.09375 0.125
vt 0.109375 0.125
vn 1 0 0
vn -1 0 0
vn 0 1 0
vn 0 -1 0
vn 0 0 1
vn 0 0 -1
usemtl m_81afbf0e-2746-1dd2-b63a-4b10d1985c13
f 2/1/1 1/2/1 3/3/1 4/4/1
f 7/5/2 5/6/2 6/7/2 8/8/2
f 5/9/3 1/10/3 2/11/3 6/12/3
f 4/13/4 3/14/4 7/15/4 8/16/4
f 3/17/5 1/18/5 5/19/5 7/20/5
f 6/21/6 2/22/6 4/23/6 8/24/6
o cylinder
v -1.710301458278871e-16 2.3645833333333335 -0.031250000000002526
v -1.6337610333321615e-16 2.3645833333333335 -0.09375000000000253
v -0.5222754037844384 2.09375 -0.031250000000002276
v -0.5222754037844384 2.09375 -0.09375000000000228
v -2.8998793767646116e-16 2.90625 -0.031250000000003136
v -2.823338951817902e-16 2.90625 -0.09375000000000314
v 0.5222754037844384 2.09375 -0.031250000000002165
v 0.5222754037844384 2.09375 -0.09375000000000216
v 0.5222754037844384 1.71875 -0.03125000000000175
v -0.5222754037844384 1.71875 -0.03125000000000186
v -0.5222754037844384 1.71875 -0.09375000000000186
v 0.5222754037844384 1.71875 -0.09375000000000175
vt 0.1328125 0.703125
vt 0.26338125 0.90625
vt 0.1328125 0.8385421875
vt 0.37926484375 0.984375
vt 0.62073515625 0.984375
vt 0.62073515625 1
vt 0.37926484375 1
vt 0.40400625 0.640625
vt 0.2734375 0.84375
vt 0.2734375 0.7083328125
vt 0.002243749999999989 0.90625
vt 0.1328125 0.703125
vt 0.1328125 0.8385421875
vt 0.28551484375 0.953125
vt 0.52698515625 0.953125
vt 0.52698515625 0.96875
vt 0.28551484375 0.96875
vt 0.2734375 0.84375
vt 0.14286875 0.640625
vt 0.2734375 0.7083328125
vt 0.26338125 0.90625
vt 0.002243749999999989 0.90625
vt 0.1328125 0.8385421875
vt 0.28125 0.921875
vt 0.546875 0.921875
vt 0.546875 0.9375
vt 0.28125 0.9375
vt 0.14286875 0.640625
vt 0.40400625 0.640625
vt 0.2734375 0.7083328125
vt 0.26338125 1
vt 0.002243749999999989 1
vt 0.002243749999999989 0.90625
vt 0.26338125 0.90625
vt 0.28551484375 1
vt 0.28551484375 0.984375
vt 0.37926484375 0.984375
vt 0.37926484375 1
vt 0.14286875 0.546875
vt 0.40400625 0.546875
vt 0.40400625 0.640625
vt 0.14286875 0.640625
vt 0.62073515625 0.953125
vt 0.62073515625 0.96875
vt 0.52698515625 0.96875
vt 0.52698515625 0.953125
vn -1.2246467991473532e-16 1.1102230246251565e-15 1
vn -0.8412001496723179 0.5407238742567873 -7.033414022382511e-16
vn 1.2246467991473532e-16 -1.1102230246251565e-15 -1
vn -1.2246467991473532e-16 1.1102230246251565e-15 1
vn 0.8412001496723178 0.5407238742567876 -4.973067880905556e-16
vn 1.2246467991473532e-16 -1.1102230246251565e-15 -1
vn -1.2246467991473532e-16 1.1102230246251565e-15 1
vn 8.326672684688673e-17 -1 1.1102230246251565e-15
vn 1.2246467991473532e-16 -1.1102230246251565e-15 -1
vn -1.2246467991473532e-16 1.1102230246251565e-15 1
vn -1 -8.326672684688688e-17 -1.2246467991473522e-16
vn 1.2246467991473532e-16 -1.1102230246251565e-15 -1
vn 1 8.326672684688688e-17 1.2246467991473522e-16
usemtl m_81afbf0e-2746-1dd2-b63a-4b10d1985c13
f 13/25/7 11/26/7 9/27/7
f 11/28/8 13/29/8 14/30/8 12/31/8
f 12/32/9 14/33/9 10/34/9
f 15/35/10 13/36/10 9/37/10
f 13/38/11 15/39/11 16/40/11 14/41/11
f 14/42/12 16/43/12 10/44/12
f 11/45/13 15/46/13 9/47/13
f 17/48/14 18/49/14 19/50/14 20/51/14
f 16/52/15 12/53/15 10/54/15
f 18/55/16 17/56/16 15/57/16 11/58/16
f 19/59/17 18/60/17 11/61/17 12/62/17
f 20/63/18 19/64/18 12/65/18 16/66/18
f 17/67/19 20/68/19 16/69/19 15/70/19
