# Made in Blockbench 4.9.3
mtllib road.mtl

o cuboid
v 5.625 0.5 5.625
v 5.625 0.5 -5.625
v 5.625 0 5.625
v 5.625 0 -5.625
v -5.625 0 5.625
v -5.625 0 -5.625
v -5 0.5 -5.625
v -5 0.5 5.625
v -5 0 5.625
v -5 0 -5.625
v 4.9375 0.5 -5.625
v 4.9375 0.5 5.625
v 4.9375 0 5.625
v 4.9375 0 -5.625
v 4.9375 0.5 4.937500000000001
v -5 0.5 4.937500000000001
v 4.9375 0.5 -4.937499999999999
v -5 0.5 -4.937499999999999
v -5.625 0 4.937500000000001
v -5.625 0 -4.937499999999999
v -5 0 4.937500000000001
v -5 0 -4.937499999999999
v 4.9375 0 4.937500000000001
v 4.9375 0 -4.937499999999999
v 5.625 0 4.937500000000001
v 5.625 0 -4.937499999999999
v 5.625 0.9375 -5.625
v 5.625 0.9375 -4.937499999999999
v 4.9375 0.9375 -5.625
v 4.9375 0.9375 -4.937499999999999
v 5.625 0.9375 4.937500000000001
v 5.625 0.9375 5.625
v 4.9375 0.9375 4.937500000000001
v 4.9375 0.9375 5.625
v -5 0.9375 5.625
v -5.625 0.9375 5.625
v -5 0.9375 4.937500000000001
v -5.625 0.9375 4.937500000000001
v -5.625 0.9375 -5.625
v -5 0.9375 -4.937499999999999
v -5.625 0.9375 -4.937499999999999
v -5 0.9375 -5.625
v -5.625 0.4955360701332868 -5.625
v -5.625 0.4955360701332868 5.625
v -5.625 0.4950896885319408 -4.9375
v -5.625 0.5 4.9375
v 5.625 0.5 4.9375
v 5.625 0.5 -4.9375
vt 0.3125 0.646484375
vt 0.3125 0.625
vt 0.33203125 0.625
vt 0.33203125 0.646484375
vt 0.01953125 0.6484375
vt 0.01953125 0.669921875
vt 0 0.669921875
vt 0 0.6484375
vt 0 0.646484375
vt 0 0.625
vt 0.310546875 0.625
vt 0.310546875 0.646484375
vt 0.330078125 0.6484375
vt 0.330078125 0.669921875
vt 0.01953125 0.669921875
vt 0.01953125 0.6484375
vt 0.353515625 0.875
vt 0.353515625 0.853515625
vt 0.375 0.853515625
vt 0.375 0.875
vt 0.3515625 0.6484375
vt 0.3515625 0.669921875
vt 0.330078125 0.669921875
vt 0.330078125 0.6484375
vt 0.310546875 0.294921875
vt 0.310546875 0.31640625
vt 0 0.31640625
vt 0 0.294921875
vt 0.310546875 0.31640625
vt 0.310546875 0.625
vt 0 0.625
vt 0 0.31640625
vt 0.33203125 0.294921875
vt 0.33203125 0.31640625
vt 0.3125 0.31640625
vt 0.3125 0.294921875
vt 0 1
vt 0 0.978515625
vt 0.01953125 0.978515625
vt 0.01953125 1
vt 0 0.978515625
vt 0 0.669921875
vt 0.01953125 0.669921875
vt 0.01953125 0.978515625
vt 0.01953125 1
vt 0.01953125 0.978515625
vt 0.330078125 0.978515625
vt 0.330078125 1
vt 0.01953125 0.978515625
vt 0.01953125 0.669921875
vt 0.330078125 0.669921875
vt 0.330078125 0.978515625
vt 0.330078125 1
vt 0.330078125 0.978515625
vt 0.3515625 0.978515625
vt 0.3515625 1
vt 0.330078125 0.978515625
vt 0.330078125 0.669921875
vt 0.3515625 0.669921875
vt 0.3515625 0.978515625
vt 0.375 0.5234375
vt 0.375 0.544921875
vt 0.353515625 0.544921875
vt 0.353515625 0.5234375
vt 0.3984375 0.875
vt 0.376953125 0.875
vt 0.376953125 0.861328125
vt 0.3984375 0.861328125
vt 0.728515625 0.875
vt 0.70703125 0.875
vt 0.70703125 0.861328125
vt 0.728515625 0.861328125
vt 0.3984375 0.859375
vt 0.376953125 0.859375
vt 0.376953125 0.845703125
vt 0.3984375 0.845703125
vt 0.728515625 0.859375
vt 0.70703125 0.859375
vt 0.70703125 0.845703125
vt 0.728515625 0.845703125
vt 0.353515625 0.544921875
vt 0.375 0.544921875
vt 0.375 0.853515625
vt 0.353515625 0.853515625
vt 0.3984375 0.845703125
vt 0.70703125 0.845703125
vt 0.70703125 0.859375
vt 0.3984375 0.859375
vt 0.3125 0.625
vt 0.3125 0.31640625
vt 0.33203125 0.31640625
vt 0.33203125 0.625
vt 0.68359375 0.970703125
vt 0.68359375 0.986328125
vt 0.373046875 0.986328125
vt 0.373046875 0.970703125
vt 0.375 0.96875
vt 0.353515625 0.96875
vt 0.353515625 0.955078125
vt 0.375 0.955078125
vt 0.353515625 0.955078125
vt 0.353515625 0.939453125
vt 0.375 0.939453125
vt 0.375 0.955078125
vt 0.685546875 0.939453125
vt 0.685546875 0.955078125
vt 0.375 0.955078125
vt 0.375 0.939453125
vt 0.705078125 1
vt 0.68359375 1
vt 0.68359375 0.986328125
vt 0.705078125 0.986328125
vt 0.68359375 0.986328125
vt 0.68359375 0.970703125
vt 0.705078125 0.970703125
vt 0.705078125 0.986328125
vt 0.3984375 0.875
vt 0.3984375 0.861328125
vt 0.70703125 0.861328125
vt 0.70703125 0.875
vt 0.705078125 0.96875
vt 0.685546875 0.96875
vt 0.685546875 0.955078125
vt 0.705078125 0.954938671875
vt 0.705078125 0.939453125
vt 0.705078125 0.954938671875
vt 0.685546875 0.955078125
vt 0.685546875 0.939453125
vt 0.353515625 0.923688671875
vt 0.353515625 0.908203125
vt 0.375 0.908203125
vt 0.375 0.923674609375
vt 0.353515625 0.9375
vt 0.353515625 0.923688671875
vt 0.375 0.923674609375
vt 0.375 0.9375
vt 0.375 0.908203125
vt 0.68359375 0.908203125
vt 0.68359375 0.923828125
vt 0.375 0.923674609375
vt 0.68359375 0.923828125
vt 0.68359375 0.9375
vt 0.375 0.9375
vt 0.375 0.923674609375
vt 0.68359375 0.908203125
vt 0.705078125 0.908203125
vt 0.705078125 0.923688671875
vt 0.68359375 0.923828125
vt 0.705078125 0.923688671875
vt 0.705078125 0.9375
vt 0.68359375 0.9375
vt 0.68359375 0.923828125
vt 0.353515625 0.970703125
vt 0.373046875 0.970703125
vt 0.373046875 0.986328125
vt 0.353515625 0.986188671875
vt 0.373046875 0.986328125
vt 0.373046875 1
vt 0.353515625 1
vt 0.353515625 0.986188671875
vt 0.68359375 0.892578125
vt 0.68359375 0.90625
vt 0.375 0.90625
vt 0.375 0.892578125
vt 0.375 0.892578125
vt 0.375 0.876953125
vt 0.68359375 0.876953125
vt 0.68359375 0.892578125
vt 0.353515625 0.892578125
vt 0.353515625 0.876953125
vt 0.375 0.876953125
vt 0.375 0.892578125
vt 0.375 0.892578125
vt 0.375 0.90625
vt 0.353515625 0.90625
vt 0.353515625 0.892578125
vt 0.705078125 0.90625
vt 0.68359375 0.90625
vt 0.68359375 0.892578125
vt 0.705078125 0.892578125
vt 0.68359375 0.892578125
vt 0.68359375 0.876953125
vt 0.705078125 0.876953125
vt 0.705078125 0.892578125
vn 0 1 0
vn 0 -1 0
vn 0 1 0
vn 0 -1 0
vn 0 1 0
vn 0 -1 0
vn 0 1 0
vn 0 1 0
vn 0 1 0
vn 0 -1 0
vn 0 -1 0
vn 0 -1 0
vn 0 -1 0
vn 0 -1 0
vn 0 -1 0
vn 0 1 0
vn -1 0 0
vn -1 0 0
vn 1 0 0
vn 1 0 0
vn 0 1 0
vn 1 0 0
vn 0 1 0
vn 0 0 1
vn 0 0 -1
vn 0 0 -1
vn 0 0 -1
vn 0 0 1
vn 0 0 1
vn -1 0 0
vn 0 0 -1
vn 0 0 -1
vn -1 0 0
vn -1 0 0
vn -1 0 0
vn -1 0 0
vn -1 0 0
vn -1 0 0
vn 0 0 1
vn 0 0 1
vn 1 0 0
vn 1 0 0
vn 1 0 0
vn 1 0 0
vn 1 0 0
vn 1 0 0
usemtl m_08d346ff-6599-03b0-60ec-ce0c5184394b
f 39/1/1 41/2/1 40/3/1 42/4/1
f 10/5/2 22/6/2 20/7/2 6/8/2
f 7/9/3 18/10/3 17/11/3 11/12/3
f 14/13/4 24/14/4 22/15/4 10/16/4
f 29/17/5 30/18/5 28/19/5 27/20/5
f 4/21/6 26/22/6 24/23/6 14/24/6
f 12/25/7 15/26/7 16/27/7 8/28/7
f 15/29/8 17/30/8 18/31/8 16/32/8
f 35/33/9 37/34/9 38/35/9 36/36/9
f 5/37/10 19/38/10 21/39/10 9/40/10
f 19/41/11 20/42/11 22/43/11 21/44/11
f 9/45/12 21/46/12 23/47/12 13/48/12
f 21/49/13 22/50/13 24/51/13 23/52/13
f 13/53/14 23/54/14 25/55/14 3/56/14
f 23/57/15 24/58/15 26/59/15 25/60/15
f 32/61/16 31/62/16 33/63/16 34/64/16
f 30/65/17 29/66/17 11/67/17 17/68/17
f 34/69/18 33/70/18 15/71/18 12/72/18
f 37/73/19 35/74/19 8/75/19 16/76/19
f 42/77/20 40/78/20 18/79/20 7/80/20
f 33/81/21 31/82/21 28/83/21 30/84/21
f 16/85/22 18/86/22 40/87/22 37/88/22
f 41/89/23 38/90/23 37/91/23 40/92/23
f 13/93/24 12/94/24 8/95/24 9/96/24
f 29/97/25 27/98/25 2/99/25 11/100/25
f 2/101/26 4/102/26 14/103/26 11/104/26
f 10/105/27 7/106/27 11/107/27 14/108/27
f 32/109/28 34/110/28 12/111/28 1/112/28
f 12/113/29 13/114/29 3/115/29 1/116/29
f 30/117/30 17/118/30 15/119/30 33/120/30
f 39/121/31 42/122/31 7/123/31 43/124/31
f 6/125/32 43/126/32 7/127/32 10/128/32
f 43/129/33 6/130/33 20/131/33 45/132/33
f 39/133/34 43/134/34 45/135/34 41/136/34
f 20/137/35 19/138/35 46/139/35 45/140/35
f 46/141/36 38/142/36 41/143/36 45/144/36
f 19/145/37 5/146/37 44/147/37 46/148/37
f 44/149/38 36/150/38 38/151/38 46/152/38
f 5/153/39 9/154/39 8/155/39 44/156/39
f 8/157/40 35/158/40 36/159/40 44/160/40
f 48/161/41 28/162/41 31/163/41 47/164/41
f 47/165/42 25/166/42 26/167/42 48/168/42
f 1/169/43 3/170/43 25/171/43 47/172/43
f 47/173/44 31/174/44 32/175/44 1/176/44
f 27/177/45 28/178/45 48/179/45 2/180/45
f 48/181/46 26/182/46 4/183/46 2/184/46