# Made in Blockbench 4.9.3
mtllib road.mtl

o cuboid
v 5.625 0.5 5.625
v 5.625 0.5 -5.625
v 5.625 0 5.625
v 5.625 0 -5.625
v -5.625 0.5 6.3125
v -5.625 0.5 -6.5
v -5.625 0 5.625
v -5.625 0 -5.625
v 5.625 0.5 -11.3125
v 5.625 0 -11.3125
v -5.625 0.5 -11.3125
v -5.625 0 -11.3125
v 5.625 0.5 11.3125
v -5.625 0.5 11.3125
v 5.625 0 11.3125
v -5.625 0 11.3125
v -5 0.5 -11.3125
v -5 0.5 -5.625
v -5 0.5 5.625
v -5 0.5 11.3125
v -5 0 11.3125
v -5 0 5.625
v -5 0 -5.625
v -5 0 -11.3125
v 4.9375 0.5 -5.625
v 4.9375 0.5 5.625
v 4.9375 0.5 11.3125
v 4.9375 0 11.3125
v 4.9375 0 5.625
v 4.9375 0 -5.625
v 4.9375 0 -11.3125
v 4.9375 0.5 -11.3125
v 4.9375 0.5 4.937500000000001
v -5 0.5 4.937500000000001
v 4.9375 0.5 -4.937499999999999
v -5 0.5 -4.937499999999999
v -5.625 0 4.937500000000001
v -5.625 0 -4.937499999999999
v -5 0 4.937500000000001
v -5 0 -4.937499999999999
v 4.9375 0 4.937500000000001
v 4.9375 0 -4.937499999999999
v 5.625 0 4.937500000000001
v 5.625 0 -4.937499999999999
v 5.625 0.9375 -5.625
v 5.625 0.9375 -4.937499999999999
v 4.9375 0.9375 -5.625
v 4.9375 0.9375 -4.937499999999999
v 5.625 0.9375 -11.3125
v 4.9375 0.9375 -11.3125
v 5.625 0.9375 4.937500000000001
v 5.625 0.9375 5.625
v 4.9375 0.9375 4.937500000000001
v 4.9375 0.9375 5.625
v 4.9375 0.9375 11.3125
v 5.625 0.9375 11.3125
v -5.625 0.9375 11.3125
v -5 0.9375 5.625
v -5 0.9375 11.3125
v -5.625 0.9375 5.625
v -5 0.9375 4.937500000000001
v -5.625 0.9375 4.937500000000001
v -5.625 0.9375 -5.625
v -5 0.9375 -4.937499999999999
v -5.625 0.9375 -4.937499999999999
v -5 0.9375 -5.625
v -5 0.9375 -11.3125
v -5.625 0.9375 -11.3125
vt 0.3447265625 0.8955078125
vt 0.3447265625 0.884765625
vt 0.3544921875 0.884765625
vt 0.3544921875 0.8955078125
vt 0.009765625 0.7353515625
vt 0.009765625 0.74609375
vt 0 0.74609375
vt 0 0.7353515625
vt 0 0.630859375
vt 0.009765625 0.630859375
vt 0.009765625 0.638671875
vt 0 0.638671875
vt 0.53125 0.9775390625
vt 0.521484375 0.9775390625
vt 0.521484375 0.9697265625
vt 0.53125 0.9697265625
vt 0.3447265625 0.8955078125
vt 0.3544921875 0.8955078125
vt 0.3544921875 0.984375
vt 0.3447265625 0.984375
vt 0.6865234375 0.9853515625
vt 0.6865234375 0.9931640625
vt 0.59765625 0.9931640625
vt 0.59765625 0.9853515625
vt 0 0.646484375
vt 0.009765625 0.646484375
vt 0.009765625 0.7353515625
vt 0 0.7353515625
vt 0.1767578125 0.638671875
vt 0.1767578125 0.630859375
vt 0.265625 0.630859375
vt 0.265625 0.638671875
vt 0.3330078125 0.9931640625
vt 0.3330078125 0.9853515625
vt 0.421875 0.9853515625
vt 0.421875 0.9931640625
vt 0.3447265625 0.630859375
vt 0.3544921875 0.630859375
vt 0.3544921875 0.7197265625
vt 0.3447265625 0.7197265625
vt 0.4443359375 0.9306640625
vt 0.4443359375 0.9384765625
vt 0.35546875 0.9384765625
vt 0.35546875 0.9306640625
vt 0 0.9111328125
vt 0.009765625 0.9111328125
vt 0.009765625 1
vt 0 1
vt 0.1767578125 0.9111328125
vt 0.33203125 0.9111328125
vt 0.33203125 1
vt 0.1767578125 1
vt 0.1767578125 0.9111328125
vt 0.1767578125 0.900390625
vt 0.33203125 0.900390625
vt 0.33203125 0.9111328125
vt 0.1767578125 0.646484375
vt 0.33203125 0.646484375
vt 0.33203125 0.7353515625
vt 0.1767578125 0.7353515625
vt 0.009765625 0.630859375
vt 0.1650390625 0.630859375
vt 0.1650390625 0.638671875
vt 0.009765625 0.638671875
vt 0.009765625 0.9111328125
vt 0.1650390625 0.9111328125
vt 0.1650390625 1
vt 0.009765625 1
vt 0.1650390625 0.7353515625
vt 0.1650390625 0.74609375
vt 0.009765625 0.74609375
vt 0.009765625 0.7353515625
vt 0.009765625 0.646484375
vt 0.1650390625 0.646484375
vt 0.1650390625 0.7353515625
vt 0.009765625 0.7353515625
vt 0.521484375 0.9775390625
vt 0.3662109375 0.9775390625
vt 0.3662109375 0.9697265625
vt 0.521484375 0.9697265625
vt 0.3330078125 0.8955078125
vt 0.3330078125 0.884765625
vt 0.34375 0.884765625
vt 0.34375 0.8955078125
vt 0.34375 0.7197265625
vt 0.3330078125 0.7197265625
vt 0.3330078125 0.630859375
vt 0.34375 0.630859375
vt 0.17578125 0.638671875
vt 0.1650390625 0.638671875
vt 0.1650390625 0.630859375
vt 0.17578125 0.630859375
vt 0.17578125 1
vt 0.1650390625 1
vt 0.1650390625 0.9111328125
vt 0.17578125 0.9111328125
vt 0.17578125 0.7353515625
vt 0.17578125 0.74609375
vt 0.1650390625 0.74609375
vt 0.1650390625 0.7353515625
vt 0.17578125 0.7353515625
vt 0.1650390625 0.7353515625
vt 0.1650390625 0.646484375
vt 0.17578125 0.646484375
vt 0.35546875 0.9697265625
vt 0.3662109375 0.9697265625
vt 0.3662109375 0.9775390625
vt 0.35546875 0.9775390625
vt 0.34375 0.984375
vt 0.3330078125 0.984375
vt 0.3330078125 0.8955078125
vt 0.34375 0.8955078125
vt 0.33203125 0.7353515625
vt 0.33203125 0.74609375
vt 0.1767578125 0.74609375
vt 0.1767578125 0.7353515625
vt 0.33203125 0.74609375
vt 0.33203125 0.900390625
vt 0.1767578125 0.900390625
vt 0.1767578125 0.74609375
vt 0.3544921875 0.7197265625
vt 0.3544921875 0.73046875
vt 0.3447265625 0.73046875
vt 0.3447265625 0.7197265625
vt 0 0.9111328125
vt 0 0.900390625
vt 0.009765625 0.900390625
vt 0.009765625 0.9111328125
vt 0 0.900390625
vt 0 0.74609375
vt 0.009765625 0.74609375
vt 0.009765625 0.900390625
vt 0.009765625 0.9111328125
vt 0.009765625 0.900390625
vt 0.1650390625 0.900390625
vt 0.1650390625 0.9111328125
vt 0.009765625 0.900390625
vt 0.009765625 0.74609375
vt 0.1650390625 0.74609375
vt 0.1650390625 0.900390625
vt 0.1650390625 0.9111328125
vt 0.1650390625 0.900390625
vt 0.17578125 0.900390625
vt 0.17578125 0.9111328125
vt 0.1650390625 0.900390625
vt 0.1650390625 0.74609375
vt 0.17578125 0.74609375
vt 0.17578125 0.900390625
vt 0.34375 0.7197265625
vt 0.34375 0.73046875
vt 0.3330078125 0.73046875
vt 0.3330078125 0.7197265625
vt 0.455078125 0.9296875
vt 0.4443359375 0.9296875
vt 0.4443359375 0.9228515625
vt 0.455078125 0.9228515625
vt 0.3662109375 0.984375
vt 0.35546875 0.984375
vt 0.35546875 0.9775390625
vt 0.3662109375 0.9775390625
vt 0.4443359375 0.9296875
vt 0.35546875 0.9296875
vt 0.35546875 0.9228515625
vt 0.4443359375 0.9228515625
vt 0.6865234375 1
vt 0.59765625 1
vt 0.59765625 0.9931640625
vt 0.6865234375 0.9931640625
vt 0.3662109375 0.921875
vt 0.35546875 0.921875
vt 0.35546875 0.9150390625
vt 0.3662109375 0.9150390625
vt 0.455078125 0.921875
vt 0.3662109375 0.921875
vt 0.3662109375 0.9150390625
vt 0.455078125 0.9150390625
vt 0.17578125 0.6455078125
vt 0.1650390625 0.6455078125
vt 0.1650390625 0.638671875
vt 0.17578125 0.638671875
vt 0.421875 1
vt 0.3330078125 1
vt 0.3330078125 0.9931640625
vt 0.421875 0.9931640625
vt 0.009765625 0.6455078125
vt 0 0.6455078125
vt 0 0.638671875
vt 0.009765625 0.638671875
vt 0.4443359375 0.953125
vt 0.35546875 0.953125
vt 0.35546875 0.9462890625
vt 0.4443359375 0.9462890625
vt 0.4443359375 0.9453125
vt 0.35546875 0.9453125
vt 0.35546875 0.9384765625
vt 0.4443359375 0.9384765625
vt 0.455078125 0.953125
vt 0.4443359375 0.953125
vt 0.4443359375 0.9462890625
vt 0.455078125 0.9462890625
vt 0.6201171875 0.953125
vt 0.609375 0.953125
vt 0.609375 0.9462890625
vt 0.6201171875 0.9462890625
vt 0.708984375 0.953125
vt 0.6201171875 0.953125
vt 0.6201171875 0.9462890625
vt 0.708984375 0.9462890625
vt 0.53125 0.984375
vt 0.521484375 0.984375
vt 0.521484375 0.9775390625
vt 0.53125 0.9775390625
vt 0.265625 0.6455078125
vt 0.1767578125 0.6455078125
vt 0.1767578125 0.638671875
vt 0.265625 0.638671875
vt 0.3330078125 0.73046875
vt 0.34375 0.73046875
vt 0.34375 0.884765625
vt 0.3330078125 0.884765625
vt 0.59765625 1
vt 0.421875 1
vt 0.421875 0.9931640625
vt 0.59765625 0.9931640625
vt 0.421875 0.9853515625
vt 0.59765625 0.9853515625
vt 0.59765625 0.9931640625
vt 0.421875 0.9931640625
vt 0.455078125 0.9462890625
vt 0.609375 0.9462890625
vt 0.609375 0.953125
vt 0.455078125 0.953125
vt 0.3447265625 0.884765625
vt 0.3447265625 0.73046875
vt 0.3544921875 0.73046875
vt 0.3544921875 0.884765625
vt 0.3662109375 0.9541015625
vt 0.3662109375 0.96875
vt 0.35546875 0.96875
vt 0.35546875 0.9541015625
vt 0.53125 0.9541015625
vt 0.53125 0.96875
vt 0.5205078125 0.96875
vt 0.5205078125 0.9541015625
vt 0.3662109375 0.9541015625
vt 0.5205078125 0.9541015625
vt 0.5205078125 0.96875
vt 0.3662109375 0.96875
vt 0.0107421875 0.9931640625
vt 0 1
vt 0 0.9853515625
vt 0.013671875 1
vt 0 0.9931640625
vt 0.013671875 0.9853515625
vn 0 1 0
vn 0 -1 0
vn 0 0 1
vn 0 0 -1
vn 0 1 0
vn 1 0 0
vn 0 -1 0
vn -1 0 0
vn 1 0 0
vn 0 1 0
vn -1 0 0
vn 0 -1 0
vn 0 1 0
vn 0 1 0
vn 0 1 0
vn 0 0 1
vn 0 -1 0
vn 0 -1 0
vn 0 -1 0
vn 0 0 -1
vn 0 1 0
vn 0 1 0
vn 0 0 1
vn 0 -1 0
vn 0 -1 0
vn 0 -1 0
vn 0 0 -1
vn 0 1 0
vn 0 1 0
vn 0 1 0
vn 0 1 0
vn 0 -1 0
vn 0 -1 0
vn 0 -1 0
vn 0 -1 0
vn 0 -1 0
vn 0 -1 0
vn 0 1 0
vn -1 0 0
vn 0 0 -1
vn -1 0 0
vn 1 0 0
vn -1 0 0
vn -1 0 0
vn 0 0 1
vn 1 0 0
vn 0 0 1
vn 1 0 0
vn -1 0 0
vn 1 0 0
vn 1 0 0
vn 1 0 0
vn 0 0 -1
vn -1 0 0
vn 0 1 0
vn 1 0 0
vn 1 0 0
vn 1 0 0
vn 0 1 0
vn -1 0 0
vn -1 0 0
vn -1 0 0
vn -1 0 0
vn -1 0 0
usemtl m_597a8147-2dbd-6f74-f246-229645d5a794
f 63/1/1 65/2/1 64/3/1 66/4/1
f 23/5/2 40/6/2 38/7/2 8/8/2
f 16/9/3 21/10/3 20/11/3 14/12/3
f 11/13/4 17/14/4 24/15/4 12/16/4
f 63/17/5 66/18/5 67/19/5 68/20/5
f 10/21/6 9/22/6 2/23/6 4/24/6
f 12/25/7 24/26/7 23/27/7 8/28/7
f 11/29/8 12/30/8 8/31/8 6/32/8
f 13/33/9 15/34/9 3/35/9 1/36/9
f 57/37/10 59/38/10 58/39/10 60/40/10
f 16/41/11 14/42/11 5/43/11 7/44/11
f 7/45/12 22/46/12 21/47/12 16/48/12
f 18/49/13 25/50/13 32/51/13 17/52/13
f 18/53/14 36/54/14 35/55/14 25/56/14
f 20/57/15 27/58/15 26/59/15 19/60/15
f 21/61/16 28/62/16 27/63/16 20/64/16
f 22/65/17 29/66/17 28/67/17 21/68/17
f 30/69/18 42/70/18 40/71/18 23/72/18
f 24/73/19 31/74/19 30/75/19 23/76/19
f 17/77/20 32/78/20 31/79/20 24/80/20
f 47/81/21 48/82/21 46/83/21 45/84/21
f 52/85/22 54/86/22 55/87/22 56/88/22
f 13/89/23 27/90/23 28/91/23 15/92/23
f 15/93/24 28/94/24 29/95/24 3/96/24
f 4/97/25 44/98/25 42/99/25 30/100/25
f 4/101/26 30/102/26 31/103/26 10/104/26
f 10/105/27 31/106/27 32/107/27 9/108/27
f 49/109/28 50/110/28 47/111/28 45/112/28
f 26/113/29 33/114/29 34/115/29 19/116/29
f 33/117/30 35/118/30 36/119/30 34/120/30
f 58/121/31 61/122/31 62/123/31 60/124/31
f 7/125/32 37/126/32 39/127/32 22/128/32
f 37/129/33 38/130/33 40/131/33 39/132/33
f 22/133/34 39/134/34 41/135/34 29/136/34
f 39/137/35 40/138/35 42/139/35 41/140/35
f 29/141/36 41/142/36 43/143/36 3/144/36
f 41/145/37 42/146/37 44/147/37 43/148/37
f 52/149/38 51/150/38 53/151/38 54/152/38
f 48/153/39 47/154/39 25/155/39 35/156/39
f 50/157/40 49/158/40 9/159/40 32/160/40
f 47/161/41 50/162/41 32/163/41 25/164/41
f 49/165/42 45/166/42 2/167/42 9/168/42
f 54/169/43 53/170/43 33/171/43 26/172/43
f 55/173/44 54/174/44 26/175/44 27/176/44
f 56/177/45 55/178/45 27/179/45 13/180/45
f 52/181/46 56/182/46 13/183/46 1/184/46
f 59/185/47 57/186/47 14/187/47 20/188/47
f 58/189/48 59/190/48 20/191/48 19/192/48
f 57/193/49 60/194/49 5/195/49 14/196/49
f 61/197/50 58/198/50 19/199/50 34/200/50
f 66/201/51 64/202/51 36/203/51 18/204/51
f 67/205/52 66/206/52 18/207/52 17/208/52
f 68/209/53 67/210/53 17/211/53 11/212/53
f 63/213/54 68/214/54 11/215/54 6/216/54
f 53/217/55 51/218/55 46/219/55 48/220/55
f 45/221/56 52/222/56 1/223/56 2/224/56
f 3/225/57 4/226/57 2/227/57 1/228/57
f 34/229/58 36/230/58 64/231/58 61/232/58
f 65/233/59 62/234/59 61/235/59 64/236/59
f 38/237/60 65/238/60 63/239/60 8/240/60
f 7/241/61 60/242/61 62/243/61 37/244/61
f 38/245/62 37/246/62 62/247/62 65/248/62
f 5/249/63 60/250/63 7/251/63
f 63/252/64 6/253/64 8/254/64