# Made in Blockbench 4.9.3
mtllib shop.mtl

o body
v 2.4375 3.75 2.3125
v 2.4375 0.5625 2.3125
v -2.375 3.75 2.3125
v -2.375 0.5625 2.3125
v -1.84375 4.0625 2.3125
v -1.84375 3.75 -2.3125
v -1.84375 0.5625 -2.3125
v -1.84375 0.5625 2.3125
v 1.859375 3.75 -2.3125
v 1.859375 4.0625 2.3125
v 1.859375 0.5625 2.3125
v 1.859375 0.5625 -2.3125
v 1.859375 4.0625 -1.8125
v -1.84375 4.0625 -1.8125
v -2.375 3.75 -1.8125
v -2.375 0.5625 -1.8125
v -1.84375 0.5625 -1.8125
v 1.859375 0.5625 -1.8125
v 2.4375 0.5625 -1.8125
v 2.4375 3.75 -1.8125
vt 0.03925147297364065 1
vt 0.03925147297364065 0.9631484375
vt 0.2706967854736407 0.9631484374999999
vt 0.2706967854736407 1
vt 0.2646484375 0.41015625
vt 0.2646484375 0.44140625
vt 0.033203125 0.44140625
vt 0.033203125 0.41015625
vt 0.337890625 0.4921875
vt 0.5693359375 0.4921875
vt 0.5693359375 0.7109375
vt 0.337890625 0.7109375
vt 0.796875 0.48828125
vt 0.56640625 0.48828125
vt 0.56640625 0.2890625
vt 0.796875 0.2890625
vt 0.3046875 0.4921875
vt 0.337890625 0.4921875
vt 0.337890625 0.7109375
vt 0.3046875 0.69140625
vt 0.60546875 0.69140625
vt 0.5693359375 0.7109375
vt 0.5693359375 0.4921875
vt 0.60546875 0.4921875
vt 0.2706967854736407 0.7053359374999999
vt 0.2706967854736407 0.9631484374999999
vt 0.03925147297364065 0.9631484374999999
vt 0.03925147297364065 0.7053359374999999
vt 0.03925147297364061 0.7053359374999999
vt 0.03925147297364065 0.9631484374999999
vt 0.0007299885986406518 0.9631484375
vt 0.0007299885986405963 0.7053359374999999
vt 0.57421875 1
vt 0.31640625 1
vt 0.31640625 0.80078125
vt 0.57421875 0.80078125
vt 0 0.69921875
vt 0 0.44140625
vt 0.033203125 0.44140625
vt 0.033203125 0.69921875
vt 0.033203125 0.69921875
vt 0.033203125 0.44140625
vt 0.2646484375 0.44140625
vt 0.2646484375 0.69921875
vt 0.2646484375 0.69921875
vt 0.2646484375 0.44140625
vt 0.30078125 0.44140625
vt 0.30078125 0.69921875
vt 0.3046875 0.2890625
vt 0.5625 0.2890625
vt 0.5625 0.48828125
vt 0.3046875 0.48828125
vt 0.3117702229736406 0.7053359374999999
vt 0.3117702229736406 0.9631484374999999
vt 0.2706967854736407 0.9631484374999999
vt 0.2706967854736407 0.7053359374999999
vt 0.046875 0.40625
vt 0 0.40625
vt 0 0.20703125
vt 0.046875 0.20703125
vt 0.0007297770263594017 0.9631484375
vt 0.03925147297364065 0.9631484374999999
vt 0.02934860696266567 0.9986444420404489
vt 0 0.44140625
vt 0.033203125 0.41015625
vt 0.033203125 0.44140625
vt 0.09765625 0.40625
vt 0.05078125 0.40625
vt 0.05078125 0.20703125
vt 0.09765625 0.20703125
vt 0.27069647447716466 0.9631484374999999
vt 0.3117702229736406 0.9631484374999999
vt 0.27998373007170646 0.9988103346734667
vt 0.30078125 0.44140625
vt 0.2646484375 0.44140625
vt 0.2646484375 0.41015625
vn 0 0.8479983040050881 -0.52999894000318
vn 0 -1 0
vn 0 0 1
vn 0 0 -1
vn 0 0 1
vn 0 0 1
vn 0 1 0
vn -0.5070201265633939 0.8619342151577697 0
vn -1 0 0
vn 0 -1 0
vn 0 -1 0
vn 0 -1 0
vn 1 0 0
vn 0.47551703436547405 0.8797065135761271 0
vn -0.685364699004991 0 -0.7281999926928029
vn -0.4463704725878427 0.7588298033993326 -0.47426862712458284
vn 0 -1 0
vn 0.6541519329315842 0 -0.7563631724521442
vn 0.41668786104627004 0.7708725429355996 -0.4817953393347497
vn 0 -1 0
usemtl m_dfc3d072-cda4-6e9d-ef01-a063ed28616f
f 6/1/1 14/2/1 13/3/1 9/4/1
f 12/5/2 18/6/2 17/7/2 7/8/2
f 8/9/3 11/10/3 10/11/3 5/12/3
f 6/13/4 9/14/4 12/15/4 7/16/4
f 4/17/5 8/18/5 5/19/5 3/20/5
f 1/21/6 10/22/6 11/23/6 2/24/6
f 10/25/7 13/26/7 14/27/7 5/28/7
f 5/29/8 14/30/8 15/31/8 3/32/8
f 3/33/9 15/34/9 16/35/9 4/36/9
f 4/37/10 16/38/10 17/39/10 8/40/10
f 8/41/11 17/42/11 18/43/11 11/44/11
f 11/45/12 18/46/12 19/47/12 2/48/12
f 2/49/13 19/50/13 20/51/13 1/52/13
f 1/53/14 20/54/14 13/55/14 10/56/14
f 15/57/15 6/58/15 7/59/15 16/60/15
f 15/61/16 14/62/16 6/63/16
f 16/64/17 7/65/17 17/66/17
f 9/67/18 20/68/18 19/69/18 12/70/18
f 13/71/19 20/72/19 9/73/19
f 19/74/20 18/75/20 12/76/20
o cuboid
v 1.75 2.2423667412453057 -2.212205237128167
v 1.75 1.8596833088802156 -3.136084769639454
v 1.75 2.18462427046335 -2.188287522605349
v 1.75 1.8019408380982602 -3.1121670551166356
v -1.75 2.2423667412453057 -2.212205237128167
v -1.75 1.8596833088802156 -3.136084769639454
v -1.75 2.18462427046335 -2.188287522605349
v -1.75 1.8019408380982602 -3.1121670551166356
v 1.7499999999999964 1.6002611617385125 -3.253319269692276
v 1.7499999999999964 1.5858374911068114 -3.2038605212493416
v -1.7499999999999964 1.6002611617385125 -3.253319269692276
v -1.7499999999999964 1.5858374911068114 -3.2038605212493416
v -1.625 2.2423667412453057 -2.212205237128167
v -1.625 1.8596833088802156 -3.136084769639454
v -1.625 1.6002611617385125 -3.253319269692276
v -1.625 1.5858374911068114 -3.2038605212493416
v -1.625 1.8019408380982602 -3.1121670551166356
v -1.625 2.18462427046335 -2.188287522605349
v 1.625 1.8596833088802156 -3.136084769639454
v 1.625 2.2423667412453057 -2.212205237128167
v 1.625 2.18462427046335 -2.188287522605349
v 1.625 1.8019408380982602 -3.1121670551166356
v 1.6249999999999982 1.5858374911068114 -3.2038605212493416
v 1.6249999999999982 1.6002611617385125 -3.253319269692276
v -1.7499999999999964 1.5836430691291397 -2.27608473628846
v -1.625 1.5836430691291397 -2.27608473628846
v -1.625 1.7997464161205885 -2.184391270155754
v -1.75 1.7997464161205885 -2.184391270155754
v 1.75 1.7997464161205885 -2.184391270155754
v 1.625 1.7997464161205885 -2.184391270155754
v 1.6249999999999982 1.5836430691291397 -2.27608473628846
v 1.7499999999999964 1.5836430691291397 -2.27608473628846
vt 0.618512890625 0.78515625
vt 0.556012890625 0.78515625
vt 0.556012890625 0.78125
vt 0.618512890625 0.78125
vt 0.709612109375 0.76953125
vt 0.709612109375 0.7734375
vt 0.647112109375 0.7734375
vt 0.647112109375 0.76953125
vt 0.32421875 0.734375
vt 0.52734375 0.734375
vt 0.52734375 0.796875
vt 0.32421875 0.796875
vt 0.578125 0.9375
vt 0.78125 0.9375
vt 0.78125 1
vt 0.578125 1
vt 0.61328125 0.7265625
vt 0.81640625 0.7265625
vt 0.81640625 0.73046875
vt 0.61328125 0.73046875
vt 0.75 0.795580859375
vt 0.546875 0.795580859375
vt 0.546875 0.7923609375
vt 0.75 0.7923609375
vt 0.8203125 0.52734375
vt 0.6171875 0.52734375
vt 0.6171875 0.509551171875
vt 0.8203125 0.509551171875
vt 0.628976171875 0.7709648437500001
vt 0.631487109375 0.7729804687499999
vt 0.618512890625 0.78515625
vt 0.618512890625 0.78125
vt 0.31640625 0.71484375
vt 0.51953125 0.71484375
vt 0.51953125 0.73046875
vt 0.31640625 0.73046875
vt 0.634137890625 0.7612617187499999
vt 0.636648828125 0.7592460937500001
vt 0.647112109375 0.76953125
vt 0.647112109375 0.7734375
vt 0.31640625 0.734375
vt 0.32421875 0.734375
vt 0.32421875 0.796875
vt 0.31640625 0.796875
vt 0.828125 0.52734375
vt 0.8203125 0.52734375
vt 0.8203125 0.509551171875
vt 0.828125 0.509551171875
vt 0.7578125 0.795580859375
vt 0.75 0.795580859375
vt 0.75 0.7923609375
vt 0.7578125 0.7923609375
vt 0 0.984375
vt 0.0078125 0.984375
vt 0.0078125 1
vt 0 1
vt 0.60546875 0.7265625
vt 0.61328125 0.7265625
vt 0.61328125 0.73046875
vt 0.60546875 0.73046875
vt 0.53515625 0.796875
vt 0.52734375 0.796875
vt 0.52734375 0.734375
vt 0.53515625 0.734375
vt 0.82421875 0.73046875
vt 0.81640625 0.73046875
vt 0.81640625 0.7265625
vt 0.82421875 0.7265625
vt 0.30859375 1
vt 0.30078125 1
vt 0.30078125 0.984375
vt 0.30859375 0.984375
vt 0.5390625 0.7923609375
vt 0.546875 0.7923609375
vt 0.546875 0.795580859375
vt 0.5390625 0.795580859375
vt 0.609375 0.509551171875
vt 0.6171875 0.509551171875
vt 0.6171875 0.52734375
vt 0.609375 0.52734375
vt 0.75 0.734375
vt 0.7578125 0.734375
vt 0.7578125 0.7923609375
vt 0.75 0.7923609375
vt 0.685389453125 0.637839453125
vt 0.6958527343750001 0.62755390625
vt 0.749372265625 0.6498710937500001
vt 0.738908984375 0.66015625
vt 0.690168359375 0.73692890625
vt 0.7006316406249999 0.747214453125
vt 0.647112109375 0.76953125
vt 0.636648828125 0.7592460937500001
vt 0.7299285156249999 0.58849140625
vt 0.740391796875 0.598776953125
vt 0.686872265625 0.62109375
vt 0.676408984375 0.6108085937500001
vt 0.5390625 0.734375
vt 0.546875 0.734375
vt 0.546875 0.7923609375
vt 0.5390625 0.7923609375
vt 0.564993359375 0.758933203125
vt 0.575456640625 0.74864765625
vt 0.628976171875 0.7709648437500001
vt 0.618512890625 0.78125
vt 0.61328125 0.702506640625
vt 0.61328125 0.7265625
vt 0.60546875 0.7265625
vt 0.60546875 0.702506640625
vt 0.81640625 0.7265625
vt 0.81640625 0.702506640625
vt 0.82421875 0.702506640625
vt 0.82421875 0.7265625
vt 0.564993359375 0.758933203125
vt 0.618512890625 0.78125
vt 0.556012890625 0.78125
vt 0.686872265625 0.62109375
vt 0.740391796875 0.598776953125
vt 0.749372265625 0.62109375
vt 0.685389453125 0.637839453125
vt 0.738908984375 0.66015625
vt 0.676408984375 0.66015625
vt 0.647112109375 0.76953125
vt 0.7006316406249999 0.747214453125
vt 0.709612109375 0.76953125
vn 1 0 0
vn -1 0 0
vn 0 0.9238795325112867 -0.3826834323650897
vn 0 -0.9238795325112867 0.3826834323650897
vn 0 0.3826834323650897 0.9238795325112867
vn 0 -0.9600093787559922 -0.279967842261453
vn 0 0.4118087739930123 -0.9112702857343546
vn 1 -1.2100058471270632e-14 -3.5287439231362916e-15
vn 0 -0.39059770983248254 0.9205614749019317
vn -1 -1.4629616253387562e-14 -4.266439668413952e-15
vn 0 0.9238795325112867 -0.3826834323650897
vn 0 0.4118087739930123 -0.9112702857343546
vn 0 -0.9600093787559923 -0.2799678422614531
vn 0 -0.39059770983248254 0.9205614749019317
vn 0 0.3826834323650897 0.9238795325112867
vn 0 0.9238795325112867 -0.3826834323650897
vn 0 0.3826834323650897 0.9238795325112867
vn 0 -0.39059770983248254 0.9205614749019316
vn 0 -0.9600093787559922 -0.279967842261453
vn 0 0.4118087739930123 -0.9112702857343545
vn 0 -0.9999972028071847 -0.002365243709764431
vn 1 0 0
vn -1 -1.642340044223938e-14 -3.8845453247171047e-17
vn -1 8.21170022111969e-15 1.9422726623585523e-17
vn 0 -0.9999972028071847 -0.0023652437097645422
vn 1 -1.6423400442239378e-14 -3.8845453247171835e-17
vn 0 0.010122829289257729 0.9999487628509677
vn 0 0.010122829289257729 0.9999487628509677
vn 1 0 0
vn -1 0 0
vn 1 0 0
vn -1 0 0
usemtl m_dfc3d072-cda4-6e9d-ef01-a063ed28616f
f 22/77/21 21/78/21 23/79/21 24/80/21
f 27/81/22 25/82/22 26/83/22 28/84/22
f 33/85/23 40/86/23 39/87/23 34/88/23
f 37/89/24 42/90/24 41/91/24 38/92/24
f 38/93/25 41/94/25 40/95/25 33/96/25
f 35/97/26 44/98/26 43/99/26 36/100/26
f 34/101/27 39/102/27 44/103/27 35/104/27
f 30/105/28 29/106/28 22/107/28 24/108/28
f 36/109/29 43/110/29 42/111/29 37/112/29
f 31/113/30 32/114/30 28/115/30 26/116/30
f 25/117/31 33/118/31 34/119/31 26/120/31
f 26/121/32 34/122/32 35/123/32 31/124/32
f 31/125/33 35/126/33 36/127/33 32/128/33
f 45/129/34 46/130/34 47/131/34 48/132/34
f 27/133/35 38/134/35 33/135/35 25/136/35
f 22/137/36 39/138/36 40/139/36 21/140/36
f 21/141/37 40/142/37 41/143/37 23/144/37
f 49/145/38 50/146/38 51/147/38 52/148/38
f 30/149/39 43/150/39 44/151/39 29/152/39
f 29/153/40 44/154/40 39/155/40 22/156/40
f 46/157/41 45/158/41 32/159/41 36/160/41
f 47/161/42 46/162/42 36/163/42 37/164/42
f 45/165/43 48/166/43 28/167/43 32/168/43
f 51/169/44 50/170/44 42/171/44 43/172/44
f 52/173/45 51/174/45 43/175/45 30/176/45
f 49/177/46 52/178/46 30/179/46 24/180/46
f 47/181/47 38/182/47 27/183/47 48/184/47
f 41/185/48 50/186/48 49/187/48 23/188/48
f 49/189/49 24/190/49 23/191/49
f 42/192/50 50/193/50 41/194/50
f 47/195/51 37/196/51 38/197/51
f 28/198/52 48/199/52 27/200/52
o cuboid
v 1.5625 3.6250000000000004 -2.5
v 1.5625 2.6250000000000004 -2.5000000000000004
v 1.5625 3.6250000000000004 -2
v 1.5625 2.6250000000000004 -2.0000000000000004
v -1.5625 3.6250000000000004 -2.5
v -1.5625 2.6250000000000004 -2.5000000000000004
v -1.5625 3.6250000000000004 -2
v -1.5625 2.6250000000000004 -2.0000000000000004
vt 0.296875 0.37109375
vt 0.234375 0.37109375
vt 0.234375 0.33984375
vt 0.296875 0.33984375
vt 0.296875 0.3046875
vt 0.296875 0.3359375
vt 0.234375 0.3359375
vt 0.234375 0.3046875
vt 0.578125 0.87109375
vt 0.7734375 0.87109375
vt 0.7734375 0.93359375
vt 0.578125 0.93359375
vt 0.7734375 0.8046875
vt 0.7734375 0.8671875
vt 0.578125 0.8671875
vt 0.578125 0.8046875
vt 0.296875 0.375
vt 0.296875 0.40625
vt 0.1015625 0.40625
vt 0.1015625 0.375
vt 0.8046875 0.6953125
vt 0.609375 0.6953125
vt 0.609375 0.6640625
vt 0.8046875 0.6640625
vn 1 0 0
vn -1 0 0
vn 0 2.220446049250313e-16 -1
vn 0 -2.220446049250313e-16 1
vn 0 1 2.220446049250313e-16
vn 0 -1 -2.220446049250313e-16
usemtl m_dfc3d072-cda4-6e9d-ef01-a063ed28616f
f 54/201/53 53/202/53 55/203/53 56/204/53
f 59/205/54 57/206/54 58/207/54 60/208/54
f 57/209/55 53/210/55 54/211/55 58/212/55
f 56/213/56 55/214/56 59/215/56 60/216/56
f 55/217/57 53/218/57 57/219/57 59/220/57
f 58/221/58 54/222/58 56/223/58 60/224/58
o cuboid
v 0.875 4.4375 1.75
v 0.875 4.4375 0.75
v 0.875 3.9375 1.75
v 0.875 3.9375 0.75
v -0.125 4.4375 1.75
v -0.125 4.4375 0.75
v -0.125 3.9375 1.75
v -0.125 3.9375 0.75
vt 0.36328125 0.28515625
vt 0.30078125 0.28515625
vt 0.30078125 0.25390625
vt 0.36328125 0.25390625
vt 0.4296875 0.25390625
vt 0.4296875 0.28515625
vt 0.3671875 0.28515625
vt 0.3671875 0.25390625
vt 0.1015625 0.30859375
vt 0.1640625 0.30859375
vt 0.1640625 0.37109375
vt 0.1015625 0.37109375
vt 0.23046875 0.30859375
vt 0.23046875 0.37109375
vt 0.16796875 0.37109375
vt 0.16796875 0.30859375
vt 0.49609375 0.25390625
vt 0.49609375 0.28515625
vt 0.43359375 0.28515625
vt 0.43359375 0.25390625
vt 0.5625 0.28515625
vt 0.5 0.28515625
vt 0.5 0.25390625
vt 0.5625 0.25390625
vn 1 0 0
vn -1 0 0
vn 0 1 0
vn 0 -1 0
vn 0 0 1
vn 0 0 -1
usemtl m_dfc3d072-cda4-6e9d-ef01-a063ed28616f
f 62/225/59 61/226/59 63/227/59 64/228/59
f 67/229/60 65/230/60 66/231/60 68/232/60
f 65/233/61 61/234/61 62/235/61 66/236/61
f 64/237/62 63/238/62 67/239/62 68/240/62
f 63/241/63 61/242/63 65/243/63 67/244/63
f 66/245/64 62/246/64 64/247/64 68/248/64
o cuboid
v -0.375 4.4375 1.75
v -0.375 4.4375 0.75
v -0.375 3.9375 1.75
v -0.375 3.9375 0.75
v -1.375 4.4375 1.75
v -1.375 4.4375 0.75
v -1.375 3.9375 1.75
v -1.375 3.9375 0.75
vt 0.73828125 0.58203125
vt 0.67578125 0.58203125
vt 0.67578125 0.55078125
vt 0.73828125 0.55078125
vt 0.1640625 0.2734375
vt 0.1640625 0.3046875
vt 0.1015625 0.3046875
vt 0.1015625 0.2734375
vt 0.609375 0.59765625
vt 0.671875 0.59765625
vt 0.671875 0.66015625
vt 0.609375 0.66015625
vt 0.671875 0.53125
vt 0.671875 0.59375
vt 0.609375 0.59375
vt 0.609375 0.53125
vt 0.23046875 0.2734375
vt 0.23046875 0.3046875
vt 0.16796875 0.3046875
vt 0.16796875 0.2734375
vt 0.296875 0.30078125
vt 0.234375 0.30078125
vt 0.234375 0.26953125
vt 0.296875 0.26953125
vn 1 0 0
vn -1 0 0
vn 0 1 0
vn 0 -1 0
vn 0 0 1
vn 0 0 -1
usemtl m_dfc3d072-cda4-6e9d-ef01-a063ed28616f
f 70/249/65 69/250/65 71/251/65 72/252/65
f 75/253/66 73/254/66 74/255/66 76/256/66
f 73/257/67 69/258/67 70/259/67 74/260/67
f 72/261/68 71/262/68 75/263/68 76/264/68
f 71/265/69 69/266/69 73/267/69 75/268/69
f 74/269/70 70/270/70 72/271/70 76/272/70
